
<svg width="249" height="44" viewBox="0 0 249 44" fill="none" xmlns="http://www.w3.org/2000/svg">
<path d="M38.9071 27.95L25.4837 4.7C23.7132 1.63334 19.2868 1.63332 17.5163 4.69999L4.09289 27.95C2.32235 31.0167 4.53551 34.85 8.0766 34.85H34.9234C38.4645 34.85 40.6777 31.0167 38.9071 27.95Z" stroke="white" stroke-width="3.2"/>
<path d="M51.5089 32.5L56.7115 12.7076H63.2148L68.4173 32.5H64.572L63.4975 28.1457H56.4288L55.3543 32.5H51.5089ZM57.3053 24.6961H62.621L60.2176 15.0544H59.7087L57.3053 24.6961ZM75.3953 32.7262C74.302 32.7262 73.3406 32.4812 72.5112 31.9911C71.7007 31.4821 71.0692 30.7847 70.6168 29.8987C70.1644 29.0128 69.9382 27.9949 69.9382 26.845V18.4757H73.5009V26.5623C73.5009 27.6179 73.7553 28.4096 74.2643 28.9374C74.7921 29.4652 75.5366 29.7291 76.498 29.7291C77.5913 29.7291 78.4395 29.3709 79.0427 28.6546C79.6459 27.9195 79.9475 26.9016 79.9475 25.6009V18.4757H83.5102V32.5H80.0041V30.6621H79.4951C79.2689 31.1334 78.8448 31.5952 78.2228 32.0476C77.6007 32.5 76.6582 32.7262 75.3953 32.7262ZM92.2813 32.8958C91.1692 32.8958 90.123 32.6225 89.1428 32.0759C88.1815 31.5104 87.4086 30.6904 86.8243 29.616C86.2399 28.5415 85.9478 27.2409 85.9478 25.714V25.2616C85.9478 23.7348 86.2399 22.4341 86.8243 21.3597C87.4086 20.2852 88.1815 19.4747 89.1428 18.928C90.1042 18.3626 91.1504 18.0798 92.2813 18.0798C93.1296 18.0798 93.8365 18.1835 94.402 18.3908C94.9863 18.5793 95.4576 18.8244 95.8157 19.126C96.1739 19.4276 96.4472 19.748 96.6357 20.0873H97.1446V12.7076H100.707V32.5H97.2012V30.8035H96.6922C96.3718 31.3313 95.8723 31.812 95.1937 32.2455C94.5339 32.6791 93.5631 32.8958 92.2813 32.8958ZM93.3558 29.7856C94.4491 29.7856 95.3633 29.4369 96.0985 28.7394C96.8336 28.0231 97.2012 26.9864 97.2012 25.6292V25.3465C97.2012 23.9893 96.8336 22.9619 96.0985 22.2645C95.3822 21.5482 94.4679 21.19 93.3558 21.19C92.2625 21.19 91.3483 21.5482 90.6131 22.2645C89.878 22.9619 89.5104 23.9893 89.5104 25.3465V25.6292C89.5104 26.9864 89.878 28.0231 90.6131 28.7394C91.3483 29.4369 92.2625 29.7856 93.3558 29.7856ZM108.163 32.8958C107.164 32.8958 106.269 32.7262 105.477 32.3869C104.685 32.0288 104.054 31.5198 103.583 30.8601C103.13 30.1815 102.904 29.3615 102.904 28.4001C102.904 27.4388 103.13 26.6377 103.583 25.9968C104.054 25.337 104.695 24.8469 105.505 24.5265C106.335 24.1872 107.277 24.0175 108.333 24.0175H112.178V23.2258C112.178 22.5661 111.971 22.0289 111.556 21.6142C111.142 21.1806 110.482 20.9638 109.577 20.9638C108.691 20.9638 108.031 21.1712 107.598 21.5859C107.164 21.9817 106.881 22.5001 106.749 23.141L103.47 22.0383C103.696 21.322 104.054 20.6717 104.544 20.0873C105.053 19.4841 105.722 19.0034 106.552 18.6453C107.4 18.2683 108.427 18.0798 109.634 18.0798C111.481 18.0798 112.942 18.5416 114.016 19.4653C115.091 20.3889 115.628 21.7273 115.628 23.4803V28.7112C115.628 29.2767 115.892 29.5594 116.419 29.5594H117.55V32.5H115.175C114.478 32.5 113.903 32.3304 113.451 31.9911C112.998 31.6518 112.772 31.1994 112.772 30.6339V30.6056H112.235C112.159 30.8318 111.99 31.1334 111.726 31.5104C111.462 31.8685 111.047 32.189 110.482 32.4717C109.916 32.7545 109.143 32.8958 108.163 32.8958ZM108.785 30.0118C109.784 30.0118 110.595 29.7385 111.217 29.1918C111.858 28.6263 112.178 27.8818 112.178 26.9581V26.6754H108.587C107.928 26.6754 107.409 26.8167 107.032 27.0995C106.655 27.3822 106.467 27.7781 106.467 28.287C106.467 28.796 106.665 29.2107 107.061 29.5311C107.456 29.8516 108.031 30.0118 108.785 30.0118ZM125.619 32.8958C124.262 32.8958 123.027 32.6131 121.915 32.0476C120.822 31.4821 119.955 30.6621 119.314 29.5877C118.673 28.5132 118.352 27.2126 118.352 25.6857V25.2899C118.352 23.7631 118.673 22.4624 119.314 21.388C119.955 20.3135 120.822 19.4935 121.915 18.928C123.027 18.3626 124.262 18.0798 125.619 18.0798C126.957 18.0798 128.107 18.3154 129.069 18.7867C130.03 19.2579 130.803 19.9082 131.387 20.7376C131.99 21.5482 132.386 22.4718 132.575 23.5086L129.125 24.2437C129.05 23.6782 128.88 23.1693 128.616 22.7169C128.352 22.2645 127.975 21.9063 127.485 21.6424C127.014 21.3785 126.42 21.2466 125.704 21.2466C124.988 21.2466 124.337 21.4068 123.753 21.7273C123.187 22.0289 122.735 22.4907 122.396 23.1127C122.075 23.7159 121.915 24.4605 121.915 25.3465V25.6292C121.915 26.5151 122.075 27.2691 122.396 27.8912C122.735 28.4944 123.187 28.9562 123.753 29.2767C124.337 29.5783 124.988 29.7291 125.704 29.7291C126.778 29.7291 127.589 29.4557 128.135 28.9091C128.701 28.3436 129.059 27.6084 129.21 26.7036L132.659 27.5236C132.414 28.5227 131.99 29.4369 131.387 30.2663C130.803 31.0768 130.03 31.7177 129.069 32.189C128.107 32.6602 126.957 32.8958 125.619 32.8958ZM134.75 32.5V18.4757H138.313V32.5H134.75ZM136.531 16.8357C135.89 16.8357 135.344 16.6284 134.891 16.2137C134.458 15.799 134.241 15.2523 134.241 14.5737C134.241 13.8951 134.458 13.3485 134.891 12.9338C135.344 12.5191 135.89 12.3117 136.531 12.3117C137.191 12.3117 137.738 12.5191 138.171 12.9338C138.605 13.3485 138.822 13.8951 138.822 14.5737C138.822 15.2523 138.605 15.799 138.171 16.2137C137.738 16.6284 137.191 16.8357 136.531 16.8357ZM146.785 32.5C145.861 32.5 145.107 32.2173 144.523 31.6518C143.957 31.0674 143.674 30.2946 143.674 29.3332V21.4162H140.168V18.4757H143.674V14.1213H147.237V18.4757H151.082V21.4162H147.237V28.7112C147.237 29.2767 147.501 29.5594 148.029 29.5594H150.743V32.5H146.785ZM154.986 38.155V35.0447H162.62C163.148 35.0447 163.412 34.762 163.412 34.1965V30.6621H162.903C162.752 30.9826 162.516 31.303 162.196 31.6235C161.875 31.9439 161.442 32.2078 160.895 32.4152C160.349 32.6225 159.651 32.7262 158.803 32.7262C157.71 32.7262 156.748 32.4812 155.919 31.9911C155.108 31.4821 154.477 30.7847 154.024 29.8987C153.572 29.0128 153.346 27.9949 153.346 26.845V18.4757H156.908V26.5623C156.908 27.6179 157.163 28.4096 157.672 28.9374C158.2 29.4652 158.944 29.7291 159.906 29.7291C160.999 29.7291 161.847 29.3709 162.45 28.6546C163.054 27.9195 163.355 26.9016 163.355 25.6009V18.4757H166.918V34.9882C166.918 35.9495 166.635 36.713 166.07 37.2785C165.504 37.8628 164.75 38.155 163.808 38.155H154.986ZM183.123 32.8958C181.596 32.8958 180.248 32.6225 179.079 32.0759C177.911 31.5292 176.996 30.747 176.337 29.7291C175.677 28.7112 175.347 27.4859 175.347 26.0533V25.2616H179.023V26.0533C179.023 27.2409 179.39 28.1362 180.125 28.7394C180.861 29.3238 181.86 29.616 183.123 29.616C184.404 29.616 185.356 29.3615 185.978 28.8525C186.619 28.3436 186.94 27.6933 186.94 26.9016C186.94 26.3549 186.78 25.9119 186.459 25.5727C186.157 25.2334 185.705 24.96 185.102 24.7527C184.518 24.5265 183.801 24.3191 182.953 24.1306L182.303 23.9893C180.945 23.6877 179.777 23.3107 178.797 22.8583C177.835 22.387 177.091 21.7744 176.563 21.0204C176.054 20.2664 175.799 19.2862 175.799 18.0798C175.799 16.8734 176.082 15.8461 176.648 14.9978C177.232 14.1307 178.043 13.471 179.079 13.0186C180.135 12.5473 181.37 12.3117 182.783 12.3117C184.197 12.3117 185.451 12.5568 186.544 13.0469C187.656 13.5181 188.523 14.2344 189.145 15.1958C189.786 16.1383 190.107 17.3258 190.107 18.7584V19.6066H186.431V18.7584C186.431 18.0044 186.28 17.4012 185.978 16.9488C185.696 16.4776 185.281 16.1383 184.734 15.9309C184.188 15.7047 183.537 15.5916 182.783 15.5916C181.652 15.5916 180.814 15.8084 180.267 16.2419C179.739 16.6566 179.475 17.2316 179.475 17.9667C179.475 18.4568 179.598 18.8715 179.843 19.2108C180.107 19.5501 180.493 19.8328 181.002 20.059C181.511 20.2852 182.161 20.4832 182.953 20.6528L183.603 20.7942C185.017 21.0958 186.242 21.4822 187.279 21.9535C188.335 22.4247 189.155 23.0468 189.739 23.8196C190.323 24.5925 190.615 25.5821 190.615 26.7885C190.615 27.9949 190.304 29.0599 189.682 29.9835C189.079 30.8883 188.212 31.6046 187.081 32.1324C185.969 32.6414 184.649 32.8958 183.123 32.8958ZM192.664 32.5V12.7076H196.226V20.2004H196.735C196.886 19.8988 197.122 19.5972 197.442 19.2956C197.763 18.994 198.187 18.749 198.715 18.5605C199.261 18.3531 199.949 18.2495 200.779 18.2495C201.872 18.2495 202.824 18.5039 203.635 19.0129C204.464 19.503 205.105 20.191 205.557 21.0769C206.01 21.944 206.236 22.9619 206.236 24.1306V32.5H202.673V24.4134C202.673 23.3578 202.409 22.5661 201.881 22.0383C201.373 21.5105 200.637 21.2466 199.676 21.2466C198.583 21.2466 197.734 21.6142 197.131 22.3493C196.528 23.0656 196.226 24.0741 196.226 25.3747V32.5H192.664ZM213.593 32.8958C212.594 32.8958 211.699 32.7262 210.907 32.3869C210.115 32.0288 209.484 31.5198 209.013 30.8601C208.56 30.1815 208.334 29.3615 208.334 28.4001C208.334 27.4388 208.56 26.6377 209.013 25.9968C209.484 25.337 210.125 24.8469 210.935 24.5265C211.765 24.1872 212.707 24.0175 213.763 24.0175H217.608V23.2258C217.608 22.5661 217.401 22.0289 216.986 21.6142C216.572 21.1806 215.912 20.9638 215.007 20.9638C214.121 20.9638 213.461 21.1712 213.028 21.5859C212.594 21.9817 212.311 22.5001 212.18 23.141L208.9 22.0383C209.126 21.322 209.484 20.6717 209.974 20.0873C210.483 19.4841 211.152 19.0034 211.982 18.6453C212.83 18.2683 213.857 18.0798 215.064 18.0798C216.911 18.0798 218.372 18.5416 219.446 19.4653C220.521 20.3889 221.058 21.7273 221.058 23.4803V28.7112C221.058 29.2767 221.322 29.5594 221.85 29.5594H222.981V32.5H220.605C219.908 32.5 219.333 32.3304 218.881 31.9911C218.428 31.6518 218.202 31.1994 218.202 30.6339V30.6056H217.665C217.589 30.8318 217.42 31.1334 217.156 31.5104C216.892 31.8685 216.477 32.189 215.912 32.4717C215.346 32.7545 214.573 32.8958 213.593 32.8958ZM214.215 30.0118C215.214 30.0118 216.025 29.7385 216.647 29.1918C217.288 28.6263 217.608 27.8818 217.608 26.9581V26.6754H214.017C213.358 26.6754 212.839 26.8167 212.462 27.0995C212.085 27.3822 211.897 27.7781 211.897 28.287C211.897 28.796 212.095 29.2107 212.491 29.5311C212.886 29.8516 213.461 30.0118 214.215 30.0118ZM224.737 32.5V18.4757H228.243V20.059H228.752C228.959 19.4935 229.299 19.0788 229.77 18.8149C230.26 18.5511 230.826 18.4191 231.467 18.4191H233.163V21.5859H231.41C230.505 21.5859 229.761 21.8309 229.176 22.321C228.592 22.7923 228.3 23.5274 228.3 24.5265V32.5H224.737ZM240.993 32.8958C239.598 32.8958 238.363 32.6037 237.288 32.0193C236.233 31.4161 235.404 30.5773 234.8 29.5029C234.216 28.4096 233.924 27.1278 233.924 25.6575V25.3182C233.924 23.8479 234.216 22.5755 234.8 21.5011C235.385 20.4078 236.205 19.5689 237.26 18.9846C238.316 18.3814 239.541 18.0798 240.936 18.0798C242.312 18.0798 243.509 18.3908 244.527 19.0129C245.545 19.6161 246.336 20.4643 246.902 21.5576C247.467 22.6321 247.75 23.8856 247.75 25.3182V26.534H237.543C237.581 27.4953 237.939 28.2776 238.617 28.8808C239.296 29.484 240.125 29.7856 241.106 29.7856C242.105 29.7856 242.84 29.5688 243.311 29.1353C243.782 28.7017 244.14 28.2211 244.385 27.6933L247.298 29.2201C247.034 29.7102 246.647 30.2474 246.139 30.8318C245.648 31.3973 244.989 31.8874 244.159 32.3021C243.33 32.6979 242.274 32.8958 240.993 32.8958ZM237.571 23.8762H244.131C244.056 23.0656 243.726 22.4153 243.141 21.9252C242.576 21.4351 241.831 21.19 240.908 21.19C239.946 21.19 239.183 21.4351 238.617 21.9252C238.052 22.4153 237.703 23.0656 237.571 23.8762Z" fill="white"/>
</svg>
